<?xml version="1.0" encoding="utf-8"?>
<!-- Generator: Adobe Illustrator 19.0.0, SVG Export Plug-In . SVG Version: 6.00 Build 0)  -->
<svg version="1.1" id="Ebene_2" xmlns="http://www.w3.org/2000/svg" xmlns:xlink="http://www.w3.org/1999/xlink" x="0px" y="0px"
	 viewBox="0 0 841.9 595.3" style="enable-background:new 0 0 841.9 595.3;" xml:space="preserve">
<style type="text/css">
	.st0{fill:#702632;}
</style>
<path id="XMLID_17_" d="M229.7,408.7c-1.8,1.2-3.6,2.5-5.3,3.4L229.7,408.7z"/>
<path id="XMLID_18_" d="M235,405.2l-5.3,3.4C231.5,407.4,233.3,406.2,235,405.2z"/>
<path id="XMLID_21_" class="st0" d="M755,293.3c-5.3-24.8-17.9-47.9-34.9-67.1c-21.9-24.6-50.5-42.6-81-55
	c-8.7-3.6-17.9-6.7-27.3-6.5s-19.2,4.6-23.6,13c49,10.1,101.1,37.9,116.4,88.8c7.7,25.6,5.2,54.2-7,78.1
	c-22.4,44.1-72.7,69.8-117.8,84.4c-98.1,31.7-204,23.1-303.2,1.2c-7.3-1.6-14.1-3.8-21.2-6.1c-6.5-2.1-71.7-28.9-68-35.4
	c33.3-57.4,74.1-111.2,125.7-153c12-9.7,25.3-19.1,40.6-21.2c15.3-2.2,33,5.1,37.8,19.8c7.7-12.6,13.2-26.9,13.1-41.6
	c-0.1-14.7-6.6-29.9-18.9-38.1c-11.2-7.5-25.7-8.5-39.1-6.7c-47.5,6.2-86.2,42-112.6,82s-43.7,85.3-69.2,125.8
	c-2.9,4.6-6.1,9.3-10.7,12.1c-6.1,3.7-13.6,3.5-20.8,3.5c-27.4,0.1-57.2,6.6-74.4,28c-9.4,11.7-13.7,28.8-6.2,41.8
	c8.6,14.9,28.7,18.5,45.8,16.2c25.4-3.5,49.3-17,65.5-36.9c76.3,62.3,176.9,86.6,273.9,86.9c89.9,0.2,198.9-13.6,267.9-77.1
	c27-24.8,46.6-59.2,51.2-95.8C758.6,320.4,757.8,306.6,755,293.3z M108.7,422.6c-7.5,2.6-14.1,3.1-18.9,1.8
	c-3.1-0.9-4.8-2.2-4.8-4.4c0.4-1.8,2.6-3.5,5.7-5.7c8.8-5.7,19.3-9.2,31.7-10.5c5.3,0.4,8.4,0.9,9.7,1.8
	C128.1,412.9,120.2,418.7,108.7,422.6z"/>
<g id="XMLID_4_">
	<path id="XMLID_5_" class="st0" d="M238.5,387.4l-1.6,1.2c0,0.2,0,0.4,0.1,0.6c0.1,0.1,1,0.4,2.6,1c0.4,0.2,0.6,0.5,0.4,0.7
		c-0.2,0.3-0.9,0.6-2.1,0.9c-3.2,0-6.3-0.4-9.1-1.4c-2.3-0.8-3.8-1.5-4.5-2.1c-0.4-0.4-0.7-0.8-0.7-1.2c-0.1-0.6,0.5-1.5,1.7-2.3
		c-1.4-0.1-2.7-0.2-3.9-0.3l-0.7,0c-1.2-0.1-2.3-0.4-3.3-0.8c-0.2,0-0.3-0.1-0.3-0.1c-0.2,0-0.5-0.2-1.1-0.6
		c-1.5-0.9-2.3-2.2-2.3-3.7c0.1-1,0.4-2,1.1-2.7c0.7-0.8,1.7-1.6,3.2-2.3l3.5-1.7c2.8-1.4,4.8-2.6,5.8-3.6l0.2-0.4
		c0.2-0.6,0.5-1,0.9-1c1.2-0.2,2.2-0.2,3.2-0.1c3.2,0.5,5.4,1,6.8,1.8c1.1,0.6,1.6,1.2,1.7,1.8c0,0.5-0.2,1-0.8,1.5
		c-2,1.7-6,4-11.9,6.8l-0.8,0.4c-0.9,0.5-1.2,1-0.8,1.4c1.2,0.9,2.7,1.1,4.2,0.5l8-3.9c0.9-0.4,2-1.2,3.4-2.3
		c0.2-0.3,0.4-0.6,0.4-1.1l0-0.7c0.5-0.8,2.8-0.3,7.1,1.6c0.5,0.2,0.9,0.4,1.4,0.7c1.9,1.1,2.5,2.1,1.9,3.3
		c-0.7,1.3-3.6,3.3-8.6,5.7C243.2,385.1,241.6,385.9,238.5,387.4z M236.9,370.6c-0.8-0.5-2.2-0.9-4.2-1.3c-2.3-0.5-3.5-0.5-3.8,0
		c0.1,0.3,0,0.5-0.1,0.8c-0.3,0.6-2.4,1.9-6.4,3.8c-3.9,2-5.9,3.3-6.2,4c0,0.1,0,0.3,0.1,0.4c0-0.1,0.1,0,0.3,0
		c0.6-0.4,2.9-1.6,6.9-3.6c3-1.4,4.9-2.9,5.9-4.5c0.6-0.3,1.6-0.3,3.1-0.1c3.3,0.9,4.9,1.2,5,0.9
		C237.3,370.8,237.1,370.7,236.9,370.6z M226.9,386c-0.4-0.2-0.8-0.1-1.1,0.5c-0.1,0.2-0.1,0.3,0,0.5c0.5,0.1,0.9-0.1,1.3-0.6
		C227.1,386.2,227.1,386.1,226.9,386z M237.4,379.9l-5.2,2.8c-2.2,0.8-4.1,1.1-5.8,0.6c-0.2,0-0.3,0-0.3,0.1l1,1.1
		c1.2,0.4,2.4,0.3,3.7-0.2l3.4-1.7l4.4-1.9c2.4-1.1,3.9-2.1,4.4-3c0.1-0.2,0.1-0.4,0.1-0.6C242.9,376.9,241,377.9,237.4,379.9z
		 M243.1,375.1c-0.1,0.2,0,0.5,0.4,1c0.1,0,0.6,0.2,1.7,0.5c1,0.3,1.7,0.5,1.9,0.6c1.4,0.5,2.1,0.8,2.2,0.6c0-0.1,0-0.1-0.1-0.2
		C245.3,375.5,243.3,374.7,243.1,375.1z"/>
	<path id="XMLID_11_" class="st0" d="M306.6,387.2c-0.2,0-0.3-0.2-0.5-0.8c-0.5-1.8-1.6-3-3.3-3.6c-5.2-1.8-14.3,1.7-27.1,10.6
		c-1.1,0.7-2.9,2-5.7,4.1c-0.5,0.4-1.6,1.2-3.4,2.6c-0.1,0.3,0.2,0.8,0.9,1.6l1.5,1.5c4.8,5.4,10.3,9.2,16.6,11.5
		c1.3,0.4,3,1.1,5.3,2.1c0.4,0.2,0.5,0.4,0.5,0.6c-0.1,0.3-1.2,0.7-3.1,1.1c-4.7,1-8.9,0.8-12.5-0.4c-5-1.7-9.5-6-13.6-12.7
		c-0.4-0.8-0.7-1.2-0.9-1.1c-0.1,0-0.7,0.4-1.7,0.8c-4,1.9-7.8,2.2-11.5,0.9c-3.5-1.2-5.2-3.4-4.8-6.5c0.1-0.4,0.2-1,0.4-1.6
		c0.9-2.7,3.3-4.2,7.3-4.5c2.6-0.2,5.2,0.1,7.8,1c0.6,0.2,1.2,0.4,1.7,0.7l1.4,0.7c0.3,0.1,0.7-0.1,1.5-0.7l2.6-2.2
		c2.9-2.6,8.1-7.2,15.7-13.8c7.2-6.2,14.4-8.7,21.4-7.7c1,0.1,1.8,0.3,2.4,0.5c5,1.7,6.7,5.1,4.9,10.2c-0.2,0.6-0.5,1.3-1,2.2
		C308.3,386,307.4,387,306.6,387.2z M256.6,395.5c-1.6-0.6-3.6-0.7-6-0.5c-2.8,0.3-4.5,1.1-5,2.5c-0.1,0.3-0.1,0.6-0.1,0.9l0,0.1
		c0.2,0,0.3,0,0.4,0c1.2-1.5,2.9-2.3,5.3-2.7c1.9-0.3,3.9-0.1,6,0.5c0.2,0,0.3,0,0.4-0.2C257.4,395.8,257.1,395.6,256.6,395.5z
		 M256.6,399.5c-2-0.5-3.8-0.5-5.5-0.1c-0.6,0.2-1,0.3-1.2,0.6c-0.1,0.3,0.1,0.6,0.5,0.9c0.7,0.5,1.7,0.7,3,0.7c2,0,3.5-0.5,4.5-1.4
		C257.8,400.1,257.4,399.9,256.6,399.5z M259.9,401.3c-0.3-0.1-1,0.1-2.2,0.7c-0.2,0.2-0.5,0.3-0.9,0.5l-1.1,0.5
		c-2.8,0.2-4.2,0.4-4.3,0.6c0,0.1,0,0.1,0,0.2c3.3,0.8,6.1,0.3,8.3-1.6c0.2-0.2,0.3-0.4,0.3-0.6C260.1,401.4,260,401.3,259.9,401.3z
		 M304.1,373.8c0-0.3-0.2-0.5-0.7-0.7c-2-0.7-4.2-0.8-6.6-0.2c-4.5,1-8.7,2.9-12.7,5.8c-2.4,1.7-5.9,4.7-10.3,9
		c-4.4,4.3-7.9,7.3-10.5,9.1c-1.3,0.4-2.1,0.7-2.2,0.9c0,0.1,0,0.2,0.2,0.4c0.8,0.1,1.8-0.1,2.9-0.7c1.7-1.3,5.3-4.4,10.7-9.5
		c4.6-4.3,8.4-7.5,11.4-9.3c4.6-2.8,9.2-4.4,13.8-4.9L304.1,373.8z"/>
	<path id="XMLID_23_" class="st0" d="M289.3,407.2c-0.2,0.3-0.1,0.6,0.2,0.9c0.2,0.1,0.7,0.2,1.4,0.2l1.3,0.1
		c0.5,0.1,0.7,0.3,0.6,0.6c-0.1,0.3-0.7,0.7-1.9,1.3c-3.7,1.1-6.8,1.3-9.1,0.6c-1.6-0.5-2.7-1.5-3.2-3c-0.2-1-0.1-2,0.3-2.8
		c0.4-0.8,2.1-2.6,5.3-5.3c1.5-1.3,2.3-2,2.5-2.2c0.8-0.7,1.5-1.5,2.1-2.6l0.1-0.4c0-0.2,0-0.4,0.1-0.6c0.1-0.3,0.2-0.5,0.5-0.6
		c1.2-0.4,2.2-0.7,3-0.7c3.1-0.3,5.4-0.2,7,0.2c1.6,0.4,2.3,1.1,2,2.1c-0.4,1.5-4.1,5.2-11.1,11.1
		C290.2,406.3,289.8,406.6,289.3,407.2z M298.9,394.6c0-0.2-0.3-0.3-0.7-0.4c-0.8-0.2-2.2-0.3-4.3-0.2c-2.3,0-3.5,0.3-3.6,0.8
		c0.2,0.3,0.1,0.6,0.1,0.9c-0.2,0.8-1.8,2.4-5,5c-3.1,2.5-4.7,4.1-4.8,4.6c-0.1,0.3,0,0.7,0.1,0.9c0.2,0,0.7-0.5,1.5-1.5l4.7-4
		c1.8-1.5,3.1-3.1,4-4.5c0.3-1,1.7-1.5,4.3-1.5L298.9,394.6z M304.3,390.9c-1.5,0.4-2.8,0.4-4.1,0.1c-2.4-0.6-3.4-1.7-3.2-3.2
		c0.4-2.2,2.2-3.3,5.7-3.3c1.6,0,2.7,0.4,3.6,1.1c0.9,0.8,1.2,1.7,0.9,2.8C307,389.7,306,390.5,304.3,390.9z M303.4,386.1
		c-0.6-0.2-1.5-0.1-2.6,0.2c-1.1,0.2-1.7,0.6-1.9,1.1c-0.1,0.2,0,0.5,0.2,0.7c0.2,0,0.7-0.2,1.5-0.7c0.1-0.1,0.7-0.2,1.8-0.3
		c1.1-0.2,1.6-0.3,1.7-0.4C304,386.3,303.8,386.2,303.4,386.1z"/>
	<path id="XMLID_28_" class="st0" d="M355.4,394.3c-0.2,0-0.3-0.1-0.6-0.7c-0.7-1.7-2-2.7-3.8-3c-5.5-1-13.9,3.8-25.2,14.6
		c-1,0.8-2.6,2.5-5,4.9c-0.4,0.4-1.4,1.4-3,3.1c-0.1,0.3,0.3,0.8,1.1,1.5l1.7,1.3c5.5,4.6,11.6,7.5,18.2,8.8
		c1.3,0.2,3.2,0.7,5.5,1.3c0.4,0.1,0.6,0.3,0.6,0.5c-0.1,0.4-1,0.9-2.9,1.6c-4.5,1.7-8.7,2.1-12.4,1.5c-5.2-0.9-10.3-4.4-15.4-10.5
		c-0.5-0.7-0.9-1-1.1-1c-0.1,0.1-0.6,0.5-1.6,1.1c-3.7,2.5-7.4,3.3-11.2,2.6c-3.7-0.7-5.6-2.6-5.7-5.7c0-0.4,0-1,0.2-1.7
		c0.5-2.8,2.7-4.6,6.5-5.5c2.5-0.6,5.2-0.7,7.9-0.2c0.6,0.1,1.3,0.2,1.8,0.4l1.5,0.4c0.3,0.1,0.7-0.2,1.3-0.9l2.2-2.5
		c2.5-3,6.9-8.3,13.4-16c6.2-7.2,12.9-10.8,20-10.9c1,0,1.8,0,2.5,0.2c5.2,1,7.4,4.1,6.4,9.3c-0.1,0.6-0.3,1.4-0.7,2.4
		C356.9,392.9,356.1,394,355.4,394.3z M307.2,410.1c-1.7-0.3-3.7-0.2-6,0.4c-2.8,0.7-4.3,1.8-4.6,3.3c-0.1,0.3,0,0.6,0,0.9l0.1,0.1
		c0.2,0,0.3,0,0.4-0.1c1-1.7,2.6-2.8,4.8-3.4c1.9-0.5,3.9-0.7,6-0.4c0.2,0,0.3-0.1,0.3-0.2C308.1,410.3,307.7,410.2,307.2,410.1z
		 M307.8,414.1c-2-0.2-3.8,0.1-5.4,0.8c-0.6,0.3-1,0.5-1.1,0.8c-0.1,0.4,0.2,0.6,0.6,0.9c0.7,0.4,1.8,0.5,3.1,0.3
		c2-0.3,3.4-1,4.3-2.1C309.1,414.5,308.7,414.3,307.8,414.1z M311.3,415.3c-0.4-0.1-1,0.3-2.1,1c-0.2,0.2-0.4,0.4-0.9,0.6l-1,0.7
		c-2.7,0.6-4.1,1-4.2,1.3c0.1,0.1,0.1,0.1,0,0.2c3.4,0.3,6-0.7,8-2.9c0.1-0.3,0.2-0.5,0.3-0.6C311.5,415.4,311.5,415.3,311.3,415.3z
		 M350.9,381.5c0-0.3-0.3-0.5-0.8-0.6c-2.1-0.4-4.2-0.1-6.5,0.8c-4.3,1.6-8.2,4.2-11.6,7.6c-2.1,2.1-5.1,5.6-8.9,10.5
		s-6.7,8.4-9,10.6c-1.3,0.6-1.9,1-2,1.2c0,0.1,0,0.2,0.2,0.3c0.8,0,1.8-0.4,2.8-1.2c1.5-1.5,4.6-5.2,9.1-11c3.9-5,7.1-8.6,9.8-10.9
		c4.1-3.5,8.4-5.8,12.9-6.9L350.9,381.5z"/>
	<path id="XMLID_34_" class="st0" d="M356.5,417.5l-1,1.7c0,0.2,0.1,0.4,0.3,0.5c0.1,0,1.1,0,2.8-0.1c0.5,0.1,0.7,0.2,0.7,0.5
		c0,0.4-0.6,0.9-1.6,1.6c-3,1.2-6,1.9-9,2.2c-2.4,0.1-4.1,0.1-4.9-0.2c-0.6-0.2-1-0.5-1.1-0.9c-0.3-0.5-0.1-1.5,0.7-2.8
		c-1.4,0.5-2.6,0.8-3.7,1.1l-0.6,0.3c-1.1,0.4-2.2,0.5-3.3,0.5c-0.2,0.1-0.3,0-0.4,0c-0.2,0.1-0.6,0-1.3-0.2
		c-1.7-0.3-2.9-1.2-3.5-2.5c-0.3-1-0.3-2,0-2.9c0.3-1,1-2.1,2.1-3.3l2.6-2.9c2.1-2.4,3.5-4.2,4-5.5l0.1-0.4
		c-0.1-0.7,0.1-1.1,0.4-1.3c1-0.6,1.9-1,2.9-1.2c3.1-0.8,5.4-1.1,6.9-0.9c1.2,0.1,2,0.5,2.3,1.1c0.2,0.5,0.2,1-0.2,1.7
		c-1.2,2.4-4.1,6-8.4,10.8l-0.6,0.7c-0.7,0.8-0.7,1.4-0.2,1.6c1.5,0.4,2.9,0.1,4.1-1.1l6-6.6c0.7-0.7,1.4-1.9,2.2-3.4
		c0.1-0.3,0.1-0.7-0.1-1.2l-0.3-0.7c0.1-0.9,2.5-1.3,7.2-1.2c0.5,0,1,0.1,1.5,0.1c2.1,0.3,3.1,1,3,2.3c-0.2,1.5-2.1,4.4-5.8,8.5
		C360.1,413.5,358.9,414.9,356.5,417.5z M348.7,402.4c-0.9-0.1-2.4,0-4.4,0.3c-2.3,0.4-3.4,0.8-3.5,1.5c0.2,0.2,0.2,0.5,0.2,0.8
		c-0.1,0.6-1.6,2.6-4.5,6c-2.9,3.3-4.3,5.3-4.2,6c0.1,0.1,0.1,0.2,0.3,0.3c0-0.1,0.1-0.1,0.2-0.1c0.4-0.6,2.1-2.6,5.1-5.9
		c2.3-2.4,3.5-4.6,3.8-6.4c0.4-0.5,1.3-0.9,2.8-1.2c3.4-0.4,5-0.8,4.9-1.1C349.2,402.5,349,402.5,348.7,402.4z M352.7,410.9
		l-3.8,4.5c-1.7,1.6-3.4,2.6-5.1,2.7c-0.2,0.1-0.2,0.1-0.2,0.2l1.4,0.6c1.2-0.1,2.3-0.6,3.4-1.6l2.5-2.8l3.3-3.4
		c1.8-1.9,2.8-3.4,2.9-4.4c0-0.2,0-0.4-0.1-0.6C356.7,406,355.4,407.7,352.7,410.9z M345.4,420.5c-0.5-0.1-0.8,0.2-0.8,0.8
		c0,0.2,0,0.4,0.2,0.5c0.5-0.1,0.8-0.4,0.9-1C345.6,420.6,345.5,420.5,345.4,420.5z M356.2,404.4c0,0.2,0.2,0.5,0.7,0.7
		c0.1,0,0.7-0.1,1.8-0.1c1.1-0.1,1.8-0.1,2-0.1c1.5,0,2.3-0.1,2.3-0.3c0-0.1-0.1-0.1-0.1-0.2C358.4,403.8,356.3,403.9,356.2,404.4z"
		/>
	<path id="XMLID_40_" class="st0" d="M379.3,417c-1.2,0.1-2.2,0.1-3.3-0.2c-0.8-0.4-1.2-0.8-1.4-1.5c0.1-0.6,1.1-2.1,1.1-2.3
		c0-0.2-0.1-0.3-0.4-0.3c-0.4,0.1-1,0.4-1.7,0.9c-2.6,2.1-4,3.9-4.1,5.2c-0.2,2,1.2,3.1,4.1,3.3c1.4,0,3.3-0.3,5.9-1.2
		c2-0.7,3.3-1,3.8-1c0.8,0.1,1.1,0.5,1.1,1.2c-0.2,0.5-0.7,1.1-1.6,1.9c-4.4,2.6-8.3,3.9-11.8,4.2c-1.3,0.1-2.5-0.1-3.4-0.4
		c-3.5-1.3-5.3-3.9-5.4-7.7c0-2.7,0.9-5.2,2.8-7.7c1.6-2.1,3.7-4,6.3-5.5c3.8-2.2,7.5-3.2,11.1-2.9c2.4,0.2,4.2,1.2,5.2,2.9
		c0.6,1,0.7,2,0.5,3.2C387,413.8,384.1,416.3,379.3,417z M369.8,408.5c-1.1,0.9-2.2,2-3.4,3.4c-1.7,2-2.5,3.6-2.6,4.7
		c0,0.5,0.1,0.9,0.3,1.2l0.3-0.1c2.2-6.7,7.2-10.8,14.9-12.3l2-0.4c0-0.1-0.1-0.2-0.2-0.3C377.2,404.4,373.5,405.7,369.8,408.5z
		 M382.3,421.5C382.3,421.4,382.3,421.4,382.3,421.5c-0.3-0.1-1.2,0.3-2.9,0.9c-0.1,0.1-1.2,0.3-3.3,0.9c-1.8,0.5-2.6,0.8-2.4,1
		c2.2,0.1,4.9-0.8,8.2-2.4C382.1,421.7,382.3,421.5,382.3,421.5z M377.6,413.4c-0.5,0-1.2,0.9-1.3,1.5c0,0.1,0.1,0.2,0.1,0.3
		c0.7,0,1.1-0.4,1.4-1C377.9,413.6,377.8,413.4,377.6,413.4z"/>
	<path id="XMLID_45_" class="st0" d="M411.8,421.1l-0.9,1.8c0.1,0.2,0.1,0.4,0.3,0.5c0.1,0,1.1-0.1,2.8-0.3c0.5,0,0.7,0.2,0.7,0.5
		c0,0.4-0.5,0.9-1.5,1.7c-2.9,1.5-5.8,2.4-8.8,2.9c-2.4,0.3-4.1,0.4-4.9,0.2c-0.6-0.2-1-0.4-1.2-0.8c-0.3-0.5-0.2-1.5,0.5-2.9
		c-1.3,0.6-2.5,1-3.6,1.4l-0.6,0.3c-1.1,0.5-2.2,0.7-3.3,0.7c-0.1,0.1-0.3,0.1-0.4,0.1c-0.1,0.1-0.6,0-1.3-0.1
		c-1.7-0.1-3-0.9-3.7-2.2c-0.4-1-0.5-2-0.2-2.9c0.3-1.1,0.8-2.2,1.8-3.5l2.4-3.1c1.9-2.5,3.1-4.5,3.6-5.8l0-0.4
		c-0.1-0.7,0-1.1,0.3-1.3c1-0.7,1.8-1.1,2.8-1.5c3.1-1,5.3-1.5,6.8-1.4c1.2,0.1,2,0.4,2.3,0.9c0.3,0.4,0.2,1-0.1,1.7
		c-1,2.5-3.6,6.3-7.5,11.4l-0.5,0.7c-0.6,0.8-0.6,1.4-0.1,1.7c1.5,0.3,2.9-0.2,4-1.4l5.4-7.1c0.6-0.8,1.2-2,2-3.6
		c0.1-0.4,0-0.7-0.2-1.2l-0.3-0.7c0-0.9,2.4-1.5,7.1-1.8c0.5-0.1,1,0,1.5,0c2.2,0.1,3.2,0.8,3.2,2.1c-0.1,1.5-1.8,4.5-5.1,8.9
		C415,416.9,413.9,418.4,411.8,421.1z M402.8,406.8c-0.9,0-2.4,0.2-4.4,0.7c-2.3,0.6-3.4,1.1-3.4,1.7c0.2,0.2,0.3,0.4,0.3,0.8
		c0,0.6-1.3,2.8-4,6.3c-2.6,3.5-3.8,5.6-3.7,6.3c0.1,0.1,0.1,0.2,0.3,0.3c0-0.1,0.1-0.1,0.2-0.1c0.3-0.6,1.8-2.7,4.6-6.3
		c2.1-2.6,3.1-4.8,3.2-6.7c0.4-0.5,1.3-1,2.7-1.5c3.3-0.7,4.9-1.2,4.8-1.5C403.3,406.8,403.1,406.8,402.8,406.8z M407.4,414.9
		l-3.4,4.8c-1.6,1.7-3.2,2.8-4.9,3.1c-0.1,0.1-0.2,0.1-0.2,0.2l1.4,0.5c1.2-0.2,2.3-0.8,3.2-1.9l2.3-3l3-3.7c1.7-2,2.5-3.6,2.6-4.6
		c0-0.2-0.1-0.4-0.2-0.6C411,409.7,409.8,411.4,407.4,414.9z M400.9,425c-0.5,0-0.7,0.3-0.8,0.9c0,0.2,0.1,0.4,0.2,0.4
		c0.5-0.1,0.8-0.5,0.8-1.1C401.1,425.1,401,425.1,400.9,425z M410.4,408.1c0,0.2,0.3,0.4,0.8,0.7c0.1,0,0.7-0.1,1.7-0.3
		c1.1-0.2,1.7-0.3,2-0.3c1.5-0.2,2.2-0.3,2.3-0.5c0-0.1-0.1-0.1-0.1-0.1C412.6,407.4,410.4,407.6,410.4,408.1z"/>
	<path id="XMLID_51_" class="st0" d="M440.8,402.5c-1.7,2.8-5.1,8.3-10.3,16.5c-0.3,0.5-0.9,1.5-1.8,2.9c-0.2,0.3-0.5,0.7-0.8,1.4
		c-0.1,0.4,0.1,0.6,0.4,0.8c0.3,0.1,0.7,0.1,1.4,0c0.7-0.2,1.2-0.4,1.4-0.3c0.5,0,0.7,0.1,0.7,0.4c0,0.4-0.5,1-1.6,1.9
		c-3.3,2.1-6.2,3.1-8.7,3c-1.7-0.1-3-0.8-3.8-2.2c-0.4-0.9-0.6-1.9-0.3-3c0.2-0.9,0.6-1.9,1.4-3c3.2-4.8,6.9-10.7,11.1-17.7
		c0.4-0.7,0.8-1.6,1.2-2.7l0-0.5c-0.1-0.2-0.1-0.4-0.1-0.6c0-0.3,0.1-0.5,0.3-0.7c1.1-0.8,2-1.3,2.7-1.6c3-1.1,5.2-1.7,6.8-1.7
		c1.2,0,1.9,0.3,2.4,0.8c0.3,0.4,0.3,0.9,0,1.7C442.5,399.3,441.8,400.8,440.8,402.5z M440.5,397.4c-0.1-0.1-0.2-0.1-0.6-0.1
		c-1.2,0-2.5,0.2-4.2,0.5c-2.2,0.5-3.2,1.1-3.3,1.8c0,0.2,0.1,0.4,0.2,0.5c0.2,0.5-0.4,1.9-1.9,4.4l-6.6,10
		c-3.4,5.2-5.2,8.5-5.2,9.7c0,0.2,0.1,0.4,0.2,0.5l4.3-6.8l5.5-8.1c2.1-3.2,3.6-6.1,4.2-8.7c0.1-1.3,2-2.4,5.9-3.3
		C440,397.6,440.5,397.5,440.5,397.4z"/>
	<path id="XMLID_54_" class="st0" d="M457.2,402c-1.6,2.8-4.9,8.4-9.9,16.8c-0.3,0.5-0.8,1.5-1.8,3c-0.2,0.3-0.5,0.7-0.8,1.4
		c-0.1,0.4,0.1,0.6,0.4,0.8c0.3,0.1,0.7,0.1,1.4,0c0.7-0.2,1.1-0.4,1.4-0.4c0.5,0,0.7,0.1,0.7,0.3c0,0.4-0.5,1-1.6,1.9
		c-3.3,2.1-6.1,3.3-8.7,3.2c-1.7,0-3-0.7-3.8-2.1c-0.4-0.9-0.6-1.9-0.4-2.9c0.1-0.9,0.5-1.9,1.3-3c3.1-4.9,6.7-10.8,10.7-17.9
		c0.4-0.7,0.8-1.7,1.1-2.8l0-0.5c-0.1-0.2-0.1-0.4-0.1-0.6c0-0.3,0.1-0.5,0.3-0.7c1.1-0.8,1.9-1.3,2.7-1.6c2.9-1.2,5.2-1.8,6.7-1.8
		c1.2,0,1.9,0.3,2.4,0.8c0.3,0.4,0.3,0.9,0,1.7C458.8,398.9,458.1,400.4,457.2,402z M456.8,397c-0.1-0.1-0.2-0.1-0.6-0.1
		c-1.2,0-2.5,0.3-4.2,0.6c-2.2,0.5-3.2,1.2-3.2,1.8c0,0.2,0.1,0.4,0.2,0.5c0.2,0.5-0.4,2-1.8,4.4l-6.3,10.2c-3.3,5.3-5,8.6-5,9.8
		c0,0.2,0.1,0.4,0.2,0.5l4.1-6.9l5.3-8.2c2-3.3,3.4-6.2,4-8.8c0.1-1.3,2-2.4,5.8-3.4C456.3,397.2,456.7,397.1,456.8,397z"/>
	<path id="XMLID_57_" class="st0" d="M477,419.9l-0.7,1.8c0.1,0.2,0.2,0.4,0.4,0.5c0.1,0,1.1-0.2,2.7-0.6c0.5,0,0.7,0.1,0.7,0.4
		c0,0.4-0.5,1-1.4,1.9c-2.7,1.7-5.6,2.9-8.5,3.7c-2.4,0.5-4,0.8-4.9,0.6c-0.6-0.1-1-0.3-1.3-0.7c-0.4-0.5-0.4-1.5,0.2-2.9
		c-1.3,0.7-2.4,1.3-3.4,1.8l-0.6,0.4c-1.1,0.6-2.1,0.9-3.2,1c-0.1,0.1-0.3,0.1-0.4,0.1c-0.1,0.1-0.6,0.1-1.3,0.1
		c-1.7,0-3.1-0.6-3.9-1.9c-0.5-0.9-0.7-1.9-0.5-2.9c0.2-1.1,0.6-2.3,1.5-3.6l2.1-3.3c1.7-2.7,2.7-4.7,3-6.1l0-0.4
		c-0.2-0.6-0.1-1.1,0.2-1.3c0.9-0.8,1.7-1.3,2.7-1.7c3-1.3,5.2-2,6.7-2.1c1.2-0.1,2,0.2,2.4,0.7c0.3,0.4,0.3,1,0.1,1.7
		c-0.8,2.6-3,6.6-6.5,12.1l-0.5,0.7c-0.5,0.9-0.5,1.5,0.1,1.7c1.5,0.1,2.9-0.4,3.9-1.8l4.8-7.5c0.5-0.8,1.1-2.1,1.6-3.8
		c0.1-0.4,0-0.7-0.3-1.1l-0.4-0.6c0-0.9,2.2-1.7,6.9-2.4c0.5-0.1,1-0.1,1.5-0.1c2.2-0.1,3.3,0.5,3.3,1.8c0.1,1.5-1.4,4.7-4.3,9.4
		C479.8,415.5,478.9,417,477,419.9z M466.8,406.4c-0.9,0-2.4,0.4-4.3,1.1c-2.2,0.8-3.2,1.4-3.2,2c0.2,0.2,0.3,0.4,0.3,0.8
		c0,0.6-1.1,2.9-3.4,6.7c-2.3,3.7-3.3,5.9-3.1,6.6c0.1,0.1,0.2,0.2,0.3,0.3c0-0.1,0.1-0.1,0.2-0.2c0.3-0.7,1.6-2.9,4-6.7
		c1.8-2.8,2.6-5.1,2.6-7c0.3-0.5,1.2-1.1,2.6-1.7c3.3-1,4.8-1.6,4.7-1.9C467.3,406.4,467.1,406.4,466.8,406.4z M472.1,414.1l-3,5.1
		c-1.4,1.9-2.9,3.1-4.6,3.5c-0.1,0.1-0.2,0.2-0.2,0.2l1.5,0.4c1.2-0.3,2.2-1,3.1-2.2l2-3.2l2.7-4c1.5-2.2,2.2-3.8,2.1-4.9
		c0-0.2-0.1-0.4-0.2-0.6C475.3,408.6,474.2,410.5,472.1,414.1z M466.5,424.8c-0.5,0-0.7,0.3-0.7,1c0,0.2,0.1,0.4,0.2,0.4
		c0.5-0.2,0.8-0.5,0.7-1.2C466.8,424.9,466.7,424.8,466.5,424.8z M474.5,407.1c0,0.2,0.3,0.4,0.8,0.6c0.1,0,0.6-0.2,1.7-0.4
		s1.7-0.4,1.9-0.5c1.5-0.3,2.2-0.5,2.2-0.7c0-0.1-0.1-0.1-0.2-0.1C476.6,406.2,474.4,406.6,474.5,407.1z"/>
	<path id="XMLID_63_" class="st0" d="M494.3,427.3c-3.8,0.3-6.9-0.6-9.4-2.6c-1.8-1.5-2.8-3.3-3-5.5c-0.2-2.3,0.4-4.4,1.8-6.4
		c1.4-2,3.3-3.2,5.5-3.7c0.9-0.1,1.5,0.2,1.5,1c0,0.3-0.3,1.3-1,3c-0.3,0.8-0.5,1.3-0.4,1.7c0,0.4,0.3,0.6,0.7,0.4l0.3-0.2
		c1.1-1,2-2.1,2.8-2.9c0.6-0.6,2.2-2.6,5-5.9l0.2-0.7c-0.1-0.4-0.3-0.9-0.4-1.6c-0.3-2.6,1.9-5.1,4.6-5.3c1.5-0.1,2.3,0.4,2.4,1.6
		c0.1,0.6-0.1,1.5-0.4,2.6l-0.9,2.6l0.1,0.8c0.5,0.9,1.1,2.4,2,4.4c0.3,1.5,0.4,2.6,0.5,3.6C506.2,421.5,501.7,426.7,494.3,427.3z
		 M488.3,410.8c-1,0.1-2.1,1-3.2,2.7c-1.2,1.7-1.7,3-1.6,4.1c0,0.5,0.2,0.8,0.5,1c0.5-1.3,1.2-2.9,2-4.7c1.9-1.8,2.8-2.8,2.8-3.1
		C488.7,410.9,488.6,410.8,488.3,410.8z M500,405.7c-1.5,2.4-4.3,5.9-8.8,10.4l-0.9,0.9l0.2,0.3c1.2-0.3,3.2-2.1,6.2-5.5
		c3-3.4,4.1-5.6,3.7-6.3C500.4,405.5,500.2,405.5,500,405.7z M499.2,410.8c-0.1,0-0.3,0.1-0.5,0.3c-1.8,2.1-3.6,4.6-5.7,7.3
		c-0.1,0.7,0.4,0.9,1.5,0.9l1.1-0.4c2.8-1.3,4.2-3.7,4.2-7.2C499.7,411,499.5,410.7,499.2,410.8z M502.3,412.2
		c0-0.4-0.1-0.5-0.3-0.5l-0.2,0.2c-0.7,2.5-1.3,4.2-1.9,5.1c-1,1.7-2.5,2.9-4.5,3.5c-0.3,0.2-0.4,0.4-0.4,0.5c0,0.1,0.1,0.1,0.2,0.2
		c2-0.4,3.7-1.3,5.2-2.9c1.4-1.6,2.1-3.4,1.9-5.4C502.3,412.7,502.3,412.4,502.3,412.2z M501.9,400.3c-1.1,0.1-2.5,1.4-2.4,2.4
		c0,0.4,0.2,0.6,0.5,0.6c0.2-0.1,0.3-0.3,0.5-0.7c0.1-0.1,0.4-0.5,1.1-1.1c0.7-0.6,1.1-1,1-1.2C502.3,400.3,502.1,400.3,501.9,400.3
		z"/>
</g>
</svg>
